<svg width="50" height="50" viewBox="0 0 50 50" fill="none" xmlns="http://www.w3.org/2000/svg">
<path d="M34.7656 8.20312C30.6641 8.20312 27.0977 10.0527 25 13.1523C22.9023 10.0527 19.3359 8.20312 15.2344 8.20312C12.1275 8.20674 9.14887 9.44256 6.95196 11.6395C4.75506 13.8364 3.51924 16.815 3.51562 19.9219C3.51562 25.625 7.07031 31.5605 14.082 37.5605C17.295 40.2983 20.7657 42.7185 24.4453 44.7871C24.6158 44.8787 24.8064 44.9267 25 44.9267C25.1936 44.9267 25.3842 44.8787 25.5547 44.7871C29.2343 42.7185 32.705 40.2983 35.918 37.5605C42.9297 31.5605 46.4844 25.625 46.4844 19.9219C46.4808 16.815 45.2449 13.8364 43.048 11.6395C40.8511 9.44256 37.8725 8.20674 34.7656 8.20312ZM25 42.4043C21.7949 40.5547 5.85938 30.8047 5.85938 19.9219C5.86196 17.4363 6.85051 15.0532 8.6081 13.2956C10.3657 11.538 12.7488 10.5495 15.2344 10.5469C19.1953 10.5469 22.5215 12.6621 23.916 16.0684C24.0043 16.2833 24.1545 16.4671 24.3475 16.5965C24.5405 16.7259 24.7676 16.795 25 16.795C25.2324 16.795 25.4595 16.7259 25.6525 16.5965C25.8455 16.4671 25.9957 16.2833 26.084 16.0684C27.4785 12.6621 30.8047 10.5469 34.7656 10.5469C37.2512 10.5495 39.6343 11.538 41.3919 13.2956C43.1495 15.0532 44.138 17.4363 44.1406 19.9219C44.1406 30.8047 28.2051 40.5547 25 42.4043Z" fill="#F53102"/>
</svg>
