<svg width="21" height="21" viewBox="0 0 21 21" fill="none" xmlns="http://www.w3.org/2000/svg">
<path d="M5.00586 3.96294C5.00586 3.38719 5.47313 2.91992 6.04888 2.91992H10.221C10.9462 2.92048 11.6574 3.11993 12.2772 3.49658C12.8969 3.87323 13.4015 4.41265 13.7361 5.05613C14.0706 5.69962 14.2222 6.42253 14.1744 7.14619C14.1267 7.86986 13.8813 8.56657 13.4652 9.16051C14.3224 9.56542 15.0161 10.2502 15.4321 11.102C15.8481 11.9539 15.9616 12.922 15.7539 13.847C15.5462 14.772 15.0297 15.5986 14.2894 16.1908C13.5491 16.783 12.6292 17.1054 11.6812 17.105H6.04888C5.47313 17.105 5.00586 16.6377 5.00586 16.062V3.96294ZM7.0919 10.8469V15.0189H11.6812C12.2344 15.0189 12.765 14.7992 13.1562 14.408C13.5474 14.0167 13.7672 13.4862 13.7672 12.9329C13.7672 12.3796 13.5474 11.8491 13.1562 11.4578C12.765 11.0666 12.2344 10.8469 11.6812 10.8469H7.0919ZM7.0919 8.76083H10.2218C10.7197 8.76072 11.1972 8.56281 11.5492 8.21064C11.9012 7.85848 12.0989 7.3809 12.0988 6.88298C12.0987 6.38505 11.9008 5.90756 11.5486 5.55555C11.1965 5.20354 10.7189 5.00585 10.221 5.00596H7.0919V8.76083Z" fill="black"/>
</svg>
