<svg width="27" height="20" viewBox="0 0 27 20" fill="none" xmlns="http://www.w3.org/2000/svg">
<path d="M14.3242 3.16699C14.8765 3.16699 15.3242 3.61471 15.3242 4.16699C15.324 4.71911 14.8764 5.16699 14.3242 5.16699H4.34668C4.31265 5.16702 4.28327 5.1714 4.25977 5.17676V16.4893C4.28332 16.4946 4.31252 16.5 4.34668 16.5H19.5605C19.5948 16.5 19.6239 16.4947 19.6475 16.4893V8.75C19.6476 8.19799 20.0955 7.7502 20.6475 7.75C21.1995 7.75017 21.6473 8.19797 21.6475 8.75V16.667C21.6473 17.2517 21.3428 17.739 20.9375 18.0498C20.538 18.356 20.0403 18.5 19.5605 18.5H4.34668C3.8669 18.4999 3.3692 18.3561 2.96973 18.0498C2.56447 17.739 2.25989 17.2517 2.25977 16.667V5C2.25988 4.41546 2.56464 3.928 2.96973 3.61719L3.12402 3.50977C3.4933 3.27713 3.92699 3.16706 4.34668 3.16699H14.3242ZM13.2842 7.54199C13.5716 7.53404 13.8492 7.64981 14.0449 7.86035L18.1201 12.248C18.3906 12.5393 18.4632 12.9637 18.3047 13.3281C18.1458 13.6926 17.7853 13.9286 17.3877 13.9287H6.52051C6.11849 13.9287 5.75595 13.6877 5.59961 13.3174C5.44349 12.947 5.52414 12.5184 5.80469 12.2305L9.06445 8.88477L9.13281 8.82031C9.48813 8.51822 10.0128 8.50016 10.3896 8.78906L11.2559 9.45312L12.543 7.90234L12.6162 7.82422C12.7948 7.65089 13.0328 7.54911 13.2842 7.54199ZM12.1807 11.4717C11.8375 11.8852 11.2281 11.9529 10.8018 11.626L9.87695 10.916L8.89062 11.9287H15.0947L13.3545 10.0557L12.1807 11.4717ZM20.6455 1.41406C21.1973 1.41444 21.6453 1.86222 21.6455 2.41406V3.16602H22.8213C23.3732 3.1662 23.821 3.61411 23.8213 4.16602C23.8213 4.71819 23.3734 5.16583 22.8213 5.16602H21.6455V5.74707C21.6455 6.29912 21.1975 6.74669 20.6455 6.74707C20.0932 6.74707 19.6455 6.29936 19.6455 5.74707V5.16602H18.4746C17.9223 5.16602 17.4746 4.7183 17.4746 4.16602C17.4749 3.61399 17.9225 3.16602 18.4746 3.16602H19.6455V2.41406C19.6457 1.86198 20.0934 1.41406 20.6455 1.41406Z" fill="#333333"/>
</svg>
